<?xml version="1.0" encoding="UTF-8"?> <!-- Creator: CorelDRAW 2018 (64 Bit) --> <svg xmlns="http://www.w3.org/2000/svg" xmlns:xlink="http://www.w3.org/1999/xlink" xml:space="preserve" width="24px" height="20px" version="1.1" style="shape-rendering:geometricPrecision; text-rendering:geometricPrecision; image-rendering:optimizeQuality; fill-rule:evenodd; clip-rule:evenodd" viewBox="0 0 0.85 0.71"> <defs> <style type="text/css"> <![CDATA[ .fil0 {fill:#265C3C;fill-rule:nonzero} ]]> </style> </defs> <g id="Capa_x0020_1"> <metadata id="CorelCorpID_0Corel-Layer"></metadata> <g id="_1884618857328"> <g> <path class="fil0" d="M0.83 0.15l-0.03 0c-0.01,-0.01 -0.02,-0.02 -0.02,-0.02l-0.06 0c-0.05,0 -0.1,0.01 -0.16,0.02l0 -0.06c0,-0.01 0,-0.02 -0.01,-0.02l-0.11 -0.07c-0.01,0 -0.02,0 -0.03,0l-0.11 0.07c-0.01,0 -0.01,0.01 -0.01,0.02l0 0.06c-0.06,-0.01 -0.11,-0.02 -0.16,-0.02l-0.06 0c0,0 -0.01,0.01 -0.02,0.02l-0.03 0c-0.01,0 -0.02,0.01 -0.02,0.02l0 0.45c0,0.01 0.01,0.02 0.02,0.02l0.06 0c0.19,0 0.32,0.06 0.33,0.07 0.01,0 0.02,0 0.03,0 0.01,-0.01 0.14,-0.07 0.33,-0.07l0.06 0c0.01,0 0.02,-0.01 0.02,-0.02l0 -0.45c0,-0.01 -0.01,-0.02 -0.02,-0.02zm-0.54 0.08c0,0.01 0,0.01 0.01,0.01l0.05 0.04 0 0.06c-0.02,0 -0.05,-0.01 -0.07,-0.01l0 -0.1c0,0 0,0 0.01,0zm0.02 -0.01l0 -0.11 0.1 0.05 0 0.12 -0.1 -0.06zm0.13 -0.06l0.1 -0.05 0 0.11 -0.1 0.06 0 -0.12zm0.06 0.12l0.05 -0.04c0.01,0 0.01,0 0.01,-0.01 0.01,0 0.01,0 0.01,0l0 0.1c-0.02,0 -0.05,0.01 -0.07,0.01l0 -0.06zm-0.08 -0.25l0.11 0.05 -0.11 0.06 -0.1 -0.06 0.1 -0.05zm0.02 0.58l0 0c0.09,-0.03 0.19,-0.05 0.28,-0.05l0.05 0 0 0.02 -0.05 0c-0.09,0 -0.19,0.02 -0.28,0.05l0 -0.02zm-0.03 0.02c-0.09,-0.03 -0.19,-0.05 -0.28,-0.05l-0.05 0 0 -0.02 0.05 0c0.09,0 0.19,0.02 0.28,0.05l0 0 0 0.02zm-0.33 -0.01l-0.06 0 0 -0.45 0.03 0 0 0.41c0,0.01 0.01,0.02 0.02,0.02l0.06 0c0.09,0 0.19,0.02 0.28,0.06l0 0 0 0.02c-0.1,-0.04 -0.21,-0.06 -0.33,-0.06l0 0zm0.74 0l-0.05 0c-0.12,0 -0.23,0.02 -0.33,0.06l0 -0.02 0 0c0.09,-0.04 0.19,-0.06 0.28,-0.06l0.06 0c0.01,0 0.02,-0.01 0.02,-0.02l0 -0.08c0,0 -0.01,-0.01 -0.01,-0.01 -0.01,0 -0.02,0.01 -0.02,0.01l0 0.03 -0.05 0c-0.09,0 -0.19,0.02 -0.28,0.06l0 -0.18c0,-0.01 -0.01,-0.02 -0.02,-0.02 0,0 -0.01,0.01 -0.01,0.02l0 0.18c-0.09,-0.04 -0.19,-0.06 -0.28,-0.06l-0.05 0 0 -0.37 0.05 0c0.05,0 0.1,0 0.16,0.01l0 0.04c-0.01,0 -0.01,0 -0.02,0 -0.01,-0.01 -0.02,0 -0.02,0.01l0 0.11c0,0.01 0.01,0.02 0.02,0.02 0.03,0 0.06,0.01 0.09,0.02 0,0 0.01,0 0.01,0 0.01,-0.01 0.01,-0.01 0.01,-0.01l0 -0.07 0.03 0.02 0 0.04c0,0.01 0.01,0.01 0.01,0.01 0.01,0 0.02,0 0.02,-0.01l0 -0.04 0.03 -0.02 0 0.07c0,0 0,0 0.01,0.01 0,0 0.01,0 0.01,0 0.03,-0.01 0.06,-0.02 0.09,-0.02 0.01,0 0.02,-0.01 0.02,-0.02l0 -0.11c0,-0.01 -0.01,-0.02 -0.02,-0.01 -0.01,0 -0.01,0 -0.02,0l0 -0.04c0.06,-0.01 0.11,-0.01 0.16,-0.01l0.05 0 0 0.29c0,0 0.01,0.01 0.02,0.01 0,0 0.01,-0.01 0.01,-0.01l0 -0.28 0.02 0 0 0.45z"></path> <path class="fil0" d="M0.37 0.39c-0.03,-0.01 -0.07,-0.02 -0.1,-0.02 -0.01,0 -0.02,0 -0.02,0.01l0 0.12c0,0.01 0.01,0.01 0.02,0.01 0.03,0.01 0.06,0.02 0.09,0.02 0,0.01 0.01,0 0.01,0 0.01,0 0.01,-0.01 0.01,-0.01l0 -0.11c0,-0.01 -0.01,-0.02 -0.01,-0.02l0 0zm-0.02 0.12c-0.02,-0.01 -0.05,-0.02 -0.07,-0.02l0 -0.1c0.02,0.01 0.05,0.01 0.07,0.02l0 0.1z"></path> <path class="fil0" d="M0.22 0.2c-0.03,-0.01 -0.06,-0.01 -0.09,-0.01 -0.01,0 -0.02,0.01 -0.02,0.02l0 0.03c0,0.01 0.01,0.01 0.01,0.01 0.01,0 0.01,0 0.01,-0.01l0 -0.02c0.03,0 0.06,0 0.08,0l0 0.1c-0.02,-0.01 -0.05,-0.01 -0.08,-0.01l0 -0.01c0,-0.01 0,-0.01 -0.01,-0.01 0,0 -0.01,0 -0.01,0.01l0 0.02c0,0.01 0.01,0.02 0.02,0.02 0,0 0,0 0,0 0.03,0 0.06,0 0.09,0 0,0 0.01,0 0.01,0 0,0 0.01,-0.01 0.01,-0.01l0 -0.12c0,0 -0.01,-0.01 -0.02,-0.01z"></path> <path class="fil0" d="M0.22 0.36c-0.03,0 -0.06,-0.01 -0.09,-0.01 -0.01,0 -0.02,0.01 -0.02,0.02l0 0.12c0,0 0.01,0.01 0.02,0.01 0.03,0 0.06,0 0.09,0.01 0,0 0.01,0 0.01,-0.01 0,0 0.01,0 0.01,-0.01l0 -0.11c0,-0.01 -0.01,-0.02 -0.02,-0.02l0 0zm-0.01 0.12c-0.02,0 -0.05,0 -0.08,0l0 -0.1c0.03,0 0.06,0 0.08,0l0 0.1z"></path> <path class="fil0" d="M0.58 0.37c-0.03,0 -0.07,0.01 -0.1,0.02 0,0 -0.01,0.01 -0.01,0.02l0 0.11c0,0 0,0.01 0.01,0.01 0,0 0.01,0.01 0.01,0 0.03,0 0.06,-0.01 0.09,-0.02 0.01,0 0.02,0 0.02,-0.01l0 -0.12c0,-0.01 -0.01,-0.01 -0.02,-0.01l0 0zm-0.01 0.12c-0.02,0 -0.05,0.01 -0.07,0.02l0 -0.1c0.02,-0.01 0.05,-0.01 0.07,-0.02l0 0.1z"></path> <path class="fil0" d="M0.72 0.19c-0.03,0 -0.06,0 -0.09,0.01 -0.01,0 -0.02,0.01 -0.02,0.01l0 0.12c0,0 0.01,0.01 0.01,0.01 0,0 0.01,0 0.01,0 0.03,0 0.06,0 0.09,0 0,0 0,0 0,0 0.01,0 0.01,0 0.02,-0.01 0,0 0,0 0,-0.01l0 -0.11c0,-0.01 -0.01,-0.02 -0.02,-0.02l0 0zm0 0.12c-0.03,0 -0.06,0 -0.08,0.01l0 -0.1c0.02,0 0.05,0 0.08,0l0 0.09z"></path> <path class="fil0" d="M0.72 0.35c-0.03,0 -0.06,0.01 -0.09,0.01 -0.01,0 -0.02,0.01 -0.02,0.02l0 0.11c0,0.01 0.01,0.01 0.01,0.01 0,0.01 0.01,0.01 0.01,0.01 0.03,-0.01 0.06,-0.01 0.09,-0.01 0.01,0 0.02,-0.01 0.02,-0.01l0 -0.12c0,-0.01 -0.01,-0.02 -0.02,-0.02zm0 0.13c-0.03,0 -0.06,0 -0.08,0l0 -0.1c0.02,0 0.05,0 0.08,0l0 0.1z"></path> <path class="fil0" d="M0.48 0.19l0.03 -0.02c0,0 0.01,-0.01 0,-0.02 0,0 -0.01,0 -0.01,0l-0.03 0.01c0,0.01 -0.01,0.02 0,0.02 0,0.01 0.01,0.01 0.01,0.01z"></path> </g> </g> </g> </svg> 