<?xml version="1.0" encoding="UTF-8"?> <!-- Creator: CorelDRAW 2018 (64 Bit) --> <svg xmlns="http://www.w3.org/2000/svg" xmlns:xlink="http://www.w3.org/1999/xlink" xml:space="preserve" width="22px" height="20px" version="1.1" style="shape-rendering:geometricPrecision; text-rendering:geometricPrecision; image-rendering:optimizeQuality; fill-rule:evenodd; clip-rule:evenodd" viewBox="0 0 0.87 0.79"> <defs> <style type="text/css"> <![CDATA[ .fil0 {fill:#265C3C;fill-rule:nonzero} ]]> </style> </defs> <g id="Capa_x0020_1"> <metadata id="CorelCorpID_0Corel-Layer"></metadata> <g id="_1884618865712"> <g> <path class="fil0" d="M0.3 0.18l0.51 0 -0.28 0.22c-0.01,0.01 -0.02,0.01 -0.02,0.01 -0.01,0 -0.02,0 -0.02,-0.01l-0.2 -0.16c0,0 -0.01,0 -0.01,0 0.01,-0.01 0.02,-0.03 0.02,-0.05 0,0 0,0 0,-0.01l0 0zm-0.13 -0.14c0,0 0,0 0,0 0,0 0.01,0.01 0.02,0.02 0.01,0.01 0.03,0.04 0.03,0.05 0,0 0,0 0,0 0.03,0.04 0.03,0.07 0.04,0.08 0,0.02 -0.01,0.03 -0.02,0.04l-0.04 0.02c-0.03,0.01 -0.04,0.04 -0.04,0.06 0,0.03 0,0.05 0.01,0.07l0.09 0.16c0.01,0.02 0.03,0.03 0.06,0.04 0.02,0.01 0.05,0.01 0.07,0l0.04 -0.02c0.01,-0.01 0.02,-0.01 0.04,0 0.01,0.01 0.03,0.03 0.05,0.06 0,0.01 0,0.01 0,0.01 0.01,0.01 0.03,0.03 0.03,0.05 0.01,0.01 0.01,0.02 0.01,0.03 0,0 0,0 -0.01,0l-0.02 0.02c-0.08,0.03 -0.14,0.02 -0.2,-0.01 -0.06,-0.03 -0.11,-0.08 -0.15,-0.15 0,0 0,0 0,0l-0.08 -0.13c0,-0.01 0,-0.01 0,-0.01 -0.04,-0.06 -0.06,-0.13 -0.06,-0.2 0,-0.06 0.03,-0.13 0.1,-0.17l0.02 -0.02c0,0 0,0 0.01,0l0 0zm0 -0.04c-0.01,0 -0.02,0 -0.03,0.01l-0.03 0.01c0,0 0,0 0,0 -0.07,0.06 -0.11,0.13 -0.11,0.21 0,0.08 0.02,0.16 0.07,0.23l0.07 0.13 0 0c0.04,0.07 0.1,0.13 0.17,0.17 0.07,0.04 0.15,0.04 0.23,0.01 0,0 0,0 0,0l0.03 -0.02c0.02,-0.01 0.03,-0.02 0.03,-0.04 0,-0.01 0,-0.03 -0.01,-0.04 -0.01,-0.02 -0.02,-0.05 -0.03,-0.07 -0.03,-0.03 -0.05,-0.06 -0.07,-0.08 -0.03,-0.01 -0.06,-0.01 -0.08,0l-0.04 0.02c-0.01,0.01 -0.02,0.01 -0.04,0 -0.01,0 -0.03,-0.01 -0.03,-0.02l-0.09 -0.16c-0.01,-0.01 -0.01,-0.03 -0.01,-0.04 0,-0.02 0.01,-0.03 0.02,-0.03l0.04 -0.03c0,0.01 0,0.01 0,0.02l0.2 0.15c0.02,0.01 0.03,0.02 0.05,0.02 0,0 0,0 0,0 0.01,0 0.03,-0.01 0.04,-0.02l0.28 -0.21 0 0.35c0,0.01 -0.01,0.02 -0.02,0.02l-0.19 0c-0.01,0 -0.02,0.01 -0.02,0.02 0,0.01 0.01,0.02 0.02,0.02l0.19 0c0.03,0 0.06,-0.03 0.06,-0.06l0 -0.38c0,-0.03 -0.03,-0.05 -0.06,-0.05l-0.53 0c0,-0.01 -0.01,-0.03 -0.02,-0.05 -0.01,-0.02 -0.02,-0.04 -0.04,-0.06 -0.01,-0.01 -0.02,-0.02 -0.03,-0.03l0 0.01c-0.01,-0.01 -0.02,-0.01 -0.02,-0.01l0 0z"></path> </g> </g> </g> </svg> 