<?xml version="1.0" encoding="UTF-8"?> <!-- Creator: CorelDRAW 2018 (64 Bit) --> <svg xmlns="http://www.w3.org/2000/svg" xmlns:xlink="http://www.w3.org/1999/xlink" xml:space="preserve" width="405px" height="150px" version="1.1" style="shape-rendering:geometricPrecision; text-rendering:geometricPrecision; image-rendering:optimizeQuality; fill-rule:evenodd; clip-rule:evenodd" viewBox="0 0 414.93 153.67"> <defs> <style type="text/css"> <![CDATA[ .fil2 {fill:#0F81AE;fill-rule:nonzero} .fil1 {fill:#235C37;fill-rule:nonzero} .fil0 {fill:url(#id0)} ]]> </style> <linearGradient id="id0" gradientUnits="userSpaceOnUse" x1="18.82" y1="76.83" x2="157.12" y2="76.83"> <stop offset="0" style="stop-opacity:1; stop-color:#A9ABAE"></stop> <stop offset="0.490196" style="stop-opacity:1; stop-color:#D3D4D6"></stop> <stop offset="1" style="stop-opacity:1; stop-color:#FEFEFE"></stop> </linearGradient> </defs> <g id="Capa_x0020_1"> <metadata id="CorelCorpID_0Corel-Layer"></metadata> <path class="fil0" d="M87.97 0c30.41,0 56.69,17.67 69.15,43.3l-11.79 0c-11.53,-19.68 -32.9,-32.9 -57.36,-32.9 -24.46,0 -45.83,13.22 -57.36,32.9l-11.79 0c12.46,-25.63 38.74,-43.3 69.15,-43.3zm69.15 110.37c-12.46,25.63 -38.74,43.3 -69.15,43.3 -30.41,0 -56.69,-17.67 -69.15,-43.3l11.79 0c11.53,19.68 32.9,32.9 57.36,32.9 24.46,0 45.83,-13.22 57.36,-32.9l11.79 0z"></path> <path class="fil1" d="M78.38 57.34l1.05 0 0 -9.54 -38.76 0 0 9.54 0 0c2.61,0 3.69,3.04 1.58,4.43l-14.06 10.18 0 -10.87c0,-2.07 1.84,-3.74 4.11,-3.74l4.35 0 0 -9.54 -36.65 0 0 9.54 4.35 0c2.27,0 4.11,1.67 4.11,3.74l0 30.85c0,2.23 -1.99,4.05 -4.45,4.05l-4.01 0 0 9.88 36.65 0 0 -9.88 -4.01 0c-2.46,0 -4.76,-1.76 -4.69,-5.73l9.26 -6.34 5.84 7.15c1.66,2.03 0.06,4.92 -2.72,4.92l0 0 0 9.89 39.1 0 0 -0.36 0 -9.18 0 -0.35 -3.06 0c-2.97,0 -5.78,-1.28 -7.56,-3.45l-15.94 -19.45 18.85 -13.63c1.89,-1.37 4.24,-2.11 6.66,-2.11z"></path> <path class="fil2" d="M105.78 99.52c14.92,0 25.74,-10.03 25.74,-24.17 0,-14.13 -10.82,-24.16 -25.74,-24.16 -14.91,0 -25.82,10.03 -25.82,24.16 0,14.14 10.91,24.17 25.82,24.17zm0 -11.17c-6.8,0 -12.04,-4.88 -12.04,-13 0,-8.11 5.24,-13 12.04,-13 6.81,0 11.96,4.89 11.96,13 0,8.12 -5.15,13 -11.96,13zm60.87 -37.16c-6.37,0 -11.86,2.18 -15.53,6.19l0 -5.5 -13 0 0 46.94 13.61 0 0 -23.21c0,-8.63 4.72,-12.65 11.26,-12.65 6.02,0 9.51,3.49 9.51,11.08l0 24.78 13.61 0 0 -26.87c0,-14.31 -8.38,-20.76 -19.46,-20.76zm75.79 24.34c0,-15.1 -10.64,-24.34 -24.43,-24.34 -14.31,0 -25.04,10.12 -25.04,24.16 0,13.96 10.56,24.17 26.79,24.17 8.46,0 15,-2.62 19.36,-7.59l-7.24 -7.85c-3.22,3.05 -6.8,4.53 -11.77,4.53 -7.16,0 -12.13,-3.57 -13.44,-9.42l35.51 0c0.09,-1.13 0.26,-2.62 0.26,-3.66zm-24.34 -14.05c6.11,0 10.56,3.84 11.52,9.77l-23.12 0c0.96,-6.02 5.41,-9.77 11.6,-9.77zm53.63 38.04c9.86,0 17.62,-4.36 21.02,-11.87l-10.55 -5.75c-2.53,4.53 -6.29,6.45 -10.56,6.45 -6.89,0 -12.3,-4.8 -12.3,-13 0,-8.2 5.41,-13 12.3,-13 4.27,0 8.03,2.01 10.56,6.46l10.55 -5.67c-3.4,-7.68 -11.16,-11.95 -21.02,-11.95 -15.27,0 -26.18,10.03 -26.18,24.16 0,14.14 10.91,24.17 26.18,24.17zm53.71 -12.56c-1.48,1.13 -3.49,1.74 -5.49,1.74 -3.67,0 -5.85,-2.18 -5.85,-6.19l0 -19.11 11.69 0 0 -10.47 -11.69 0 0 -11.43 -13.61 0 0 11.43 -7.24 0 0 10.47 7.24 0 0 19.28c0,11.17 6.46,16.84 17.54,16.84 4.18,0 8.28,-0.96 11.08,-2.97l-3.67 -9.59zm48.22 -50.08c-25.39,0 -42.22,17.01 -42.22,39.78 0,23.03 16.66,40.13 41.87,40.13 6.89,0 14.66,-1.48 19.98,-4.19l-2.79 -8.02c-5.5,2.7 -11.69,3.84 -17.19,3.84 -19.37,0 -32.1,-13.18 -32.1,-31.76 0,-18.23 13,-31.49 32.45,-31.49 19.37,0 32.45,12.21 32.45,29.92 0,10.12 -2.44,14.74 -6.45,14.74 -2.36,0 -4.19,-1.39 -4.19,-5.58l0 -28.27 -11.86 0 0 5.15c-3.14,-3.75 -7.68,-5.76 -13.44,-5.76 -11.34,0 -20.15,8.9 -20.15,21.99 0,13.17 8.9,22.07 20.15,22.07 6.89,0 11.87,-2.7 14.92,-7.59 1.83,4.97 6.02,7.59 11.95,7.59 10.73,0 17.89,-8.9 17.89,-24.51 0,-21.9 -16.75,-38.04 -41.27,-38.04zm-0.78 52.52c-6.37,0 -10.82,-4.54 -10.82,-12.04 0,-7.42 4.45,-11.87 10.82,-11.87 6.28,0 10.9,4.28 10.9,11.87 0,7.68 -4.62,12.04 -10.9,12.04z"></path> </g> </svg> 