<?xml version="1.0" encoding="UTF-8"?> <!-- Creator: CorelDRAW 2018 (64 Bit) --> <svg xmlns="http://www.w3.org/2000/svg" xmlns:xlink="http://www.w3.org/1999/xlink" xml:space="preserve" width="352px" height="501px" version="1.1" style="shape-rendering:geometricPrecision; text-rendering:geometricPrecision; image-rendering:optimizeQuality; fill-rule:evenodd; clip-rule:evenodd" viewBox="0 0 138.6 197.12"> <defs> <style type="text/css"> <![CDATA[ .fil1 {fill:#265C3C} .fil0 {fill:#235C37} ]]> </style> </defs> <g id="Capa_x0020_1"> <metadata id="CorelCorpID_0Corel-Layer"></metadata> <path class="fil0" d="M69.3 0c-38.23,0 -69.3,31.07 -69.3,69.3 0,12.94 3.58,25.53 10.4,36.38l54.2 88.71c0.93,1.51 2.31,2.43 3.93,2.66 2.19,0.35 4.62,-0.58 5.89,-2.77l54.36 -89.52c6.47,-10.63 9.82,-22.98 9.82,-35.46 0,-38.23 -31.07,-69.3 -69.3,-69.3zm0 103.95c-19.4,0 -34.65,-15.71 -34.65,-34.65 0,-19.06 15.59,-34.65 34.65,-34.65 19.06,0 34.65,15.59 34.65,34.65 0,18.83 -15.01,34.65 -34.65,34.65z"></path> <path class="fil1" d="M69.3 0l0 34.65c19.06,0 34.65,15.59 34.65,34.65 0,18.83 -15.01,34.65 -34.65,34.65l0 93.17c1.97,0.04 4,-0.9 5.12,-2.84l54.36 -89.52c6.47,-10.63 9.82,-22.98 9.82,-35.46 0,-38.23 -31.07,-69.3 -69.3,-69.3z"></path> </g> </svg> 